<?xml version="1.0" encoding="UTF-8" standalone="no"?>
<svg
   xmlns:dc="http://purl.org/dc/elements/1.1/"
   xmlns:cc="http://creativecommons.org/ns#"
   xmlns:rdf="http://www.w3.org/1999/02/22-rdf-syntax-ns#"
   xmlns:svg="http://www.w3.org/2000/svg"
   xmlns="http://www.w3.org/2000/svg"
   version="1.1"
   id="svg2"
   viewBox="0 0 400 400.00001"
   height="400"
   width="400">
  <defs
     id="defs4">
    <marker
       style="overflow:visible;"
       id="Arrow2Send"
       refX="0.0"
       refY="0.0"
       orient="auto">
      <path
         transform="scale(0.3) rotate(180) translate(-2.3,0)"
         d="M 8.7185878,4.0337352 L -2.2072895,0.016013256 L 8.7185884,-4.0017078 C 6.9730900,-1.6296469 6.9831476,1.6157441 8.7185878,4.0337352 z "
         style="fill-rule:evenodd;stroke-width:0.62500000;stroke-linejoin:round;"
         id="path5224" />
    </marker>
    <pattern
       y="0"
       x="0"
       height="6"
       width="6"
       patternUnits="userSpaceOnUse"
       id="EMFhbasepattern" />
    <pattern
       y="0"
       x="0"
       height="6"
       width="6"
       patternUnits="userSpaceOnUse"
       id="EMFhbasepattern-2" />
    <pattern
       y="0"
       x="0"
       height="6"
       width="6"
       patternUnits="userSpaceOnUse"
       id="EMFhbasepattern-8" />
    <marker
       style="overflow:visible;"
       id="Arrow2Send-9"
       refX="0.0"
       refY="0.0"
       orient="auto">
      <path
         transform="scale(0.3) rotate(180) translate(-2.3,0)"
         d="M 8.7185878,4.0337352 L -2.2072895,0.016013256 L 8.7185884,-4.0017078 C 6.9730900,-1.6296469 6.9831476,1.6157441 8.7185878,4.0337352 z "
         style="fill-rule:evenodd;stroke-width:0.62500000;stroke-linejoin:round;"
         id="path5224-8" />
    </marker>
    <pattern
       y="0"
       x="0"
       height="6"
       width="6"
       patternUnits="userSpaceOnUse"
       id="EMFhbasepattern-5" />
    <pattern
       y="0"
       x="0"
       height="6"
       width="6"
       patternUnits="userSpaceOnUse"
       id="EMFhbasepattern-2-7" />
    <pattern
       y="0"
       x="0"
       height="6"
       width="6"
       patternUnits="userSpaceOnUse"
       id="EMFhbasepattern-8-6" />
  </defs>
  <metadata
     id="metadata7">
    <rdf:RDF>
      <cc:Work
         rdf:about="">
        <dc:format>image/svg+xml</dc:format>
        <dc:type
           rdf:resource="http://purl.org/dc/dcmitype/StillImage" />
        <dc:title></dc:title>
      </cc:Work>
    </rdf:RDF>
  </metadata>
  <g
     transform="translate(0,-652.36216)"
     id="layer1">
    <g
       transform="matrix(7.4614472,0,0,7.4614472,76.051359,675.12373)"
       id="g6181">
      <g
         id="layer1-9"
         transform="matrix(7.9693455,0,0,7.9693455,-622.41209,-627.83159)">
        <path
        fill="param(fill) #ffff"
         stroke="param(outline) #000"
         stroke-width="param(outline-width) 0"
           style="opacity:1;fill:#4c4cbf;fill-opacity:1;fill-rule:evenodd;stroke:#4c4cb0;stroke-width:0.1511811;stroke-linecap:square;stroke-linejoin:round;stroke-miterlimit:4;stroke-dasharray:none;stroke-dashoffset:0;stroke-opacity:0;paint-order:stroke fill markers"
           d=""
           id="path871"
           transform="scale(0.26458333,0.26458333)" />
        <path
        fill="param(fill) #ffff"
         stroke="param(outline) #000"
         stroke-width="param(outline-width) 0"
           style="opacity:1;fill:#4c4cbf;fill-opacity:1;fill-rule:evenodd;stroke:#4c4cb0;stroke-width:0.1511811;stroke-linecap:square;stroke-linejoin:round;stroke-miterlimit:4;stroke-dasharray:none;stroke-dashoffset:0;stroke-opacity:0;paint-order:stroke fill markers"
           d=""
           id="path873"
           transform="scale(0.26458333,0.26458333)" />
        <path
        fill="param(fill) #ffff"
         stroke="param(outline) #000"
         stroke-width="param(outline-width) 0"
           style="opacity:1;fill:#4c4cbf;fill-opacity:1;fill-rule:evenodd;stroke:#4c4cbf;stroke-width:0.07559055;stroke-linecap:square;stroke-linejoin:miter;stroke-miterlimit:4;stroke-dasharray:none;stroke-dashoffset:0;stroke-opacity:1;paint-order:stroke fill markers"
           d=""
           id="path909"
           transform="scale(0.26458333,0.26458333)" />
        <path
        fill="param(fill) #ffff"
         stroke="param(outline) #000"
         stroke-width="param(outline-width) 0"
           style="opacity:1;fill:#4c4cbf;fill-opacity:1;fill-rule:evenodd;stroke:#4c4cbf;stroke-width:0.07559055;stroke-linecap:square;stroke-linejoin:miter;stroke-miterlimit:4;stroke-dasharray:none;stroke-dashoffset:0;stroke-opacity:1;paint-order:stroke fill markers"
           d=""
           id="path911"
           transform="scale(0.26458333,0.26458333)" />
        <path
        fill="param(fill) #ffff"
         stroke="param(outline) #000"
         stroke-width="param(outline-width) 0"
           style="opacity:1;fill:#4c4cbf;fill-opacity:1;fill-rule:evenodd;stroke:#4c4cbf;stroke-width:0.07559055;stroke-linecap:square;stroke-linejoin:miter;stroke-miterlimit:4;stroke-dasharray:none;stroke-dashoffset:0;stroke-opacity:1;paint-order:stroke fill markers"
           d=""
           id="path913"
           transform="scale(0.26458333,0.26458333)" />
        <path
        fill="param(fill) #ffff"
         stroke="param(outline) #000"
         stroke-width="param(outline-width) 0"
           style="fill:#4c4cbf;fill-opacity:1;stroke:#4c4cbf;stroke-width:0.00529167;stroke-linecap:butt;stroke-linejoin:miter;stroke-miterlimit:4;stroke-dasharray:none;stroke-opacity:1"
           d="m 79.881432,80.736572 c -0.0039,-0.01277 -0.01167,-0.03809 -0.02428,-0.06137 -0.01261,-0.02328 -0.03019,-0.04477 -0.0837,-0.09926 -0.05351,-0.05449 -0.143283,-0.142308 -0.213212,-0.223908 -0.06993,-0.0816 -0.120071,-0.157002 -0.157302,-0.251546 -0.03723,-0.09454 -0.06151,-0.207986 -0.06216,-0.334081 -6.46e-4,-0.126095 0.02225,-0.264668 0.06346,-0.386092 0.04121,-0.121424 0.100568,-0.225587 0.181718,-0.321142 0.08115,-0.09556 0.183958,-0.182534 0.296372,-0.218389 0.112413,-0.03586 0.234483,-0.02084 0.382508,0.02993 0.148024,0.05078 0.322156,0.137305 0.484206,0.250184 0.16205,0.112878 0.312091,0.252134 0.385488,0.410841 0.0734,0.158707 0.07013,0.336901 0.06748,0.497444 -0.0027,0.160543 -0.0047,0.302772 -0.05343,0.433492 -0.04875,0.13072 -0.143839,0.249096 -0.271972,0.362413 -0.128134,0.113317 -0.287787,0.220072 -0.436436,0.285558 -0.14865,0.06549 -0.284417,0.08877 -0.37137,0.110213 -0.08695,0.02145 -0.123614,0.04076 -0.164862,0.05163 -0.04125,0.01087 -0.08545,0.01278 -0.125532,0.08479 -0.04008,0.07201 -0.07447,0.212342 -0.03443,0.31718 0.04003,0.104838 0.154392,0.172106 0.278349,0.211586 0.123957,0.03948 0.257179,0.05107 0.381524,0.08309 0.124345,0.03201 0.240026,0.08444 0.33469,0.128636 0.09466,0.0442 0.168398,0.08019 0.226742,0.166329 0.05834,0.08614 0.101396,0.222431 0.119302,0.344449 0.0179,0.122017 0.01052,0.229019 -0.0087,0.311471 -0.01919,0.08245 -0.05003,0.139268 -0.09651,0.187638 -0.04648,0.04837 -0.107855,0.08722 -0.177859,0.105855 -0.07,0.01864 -0.147619,0.01672 -0.237422,0.01866 -0.0898,0.0019 -0.190819,0.0077 -0.269824,0.01941 -0.079,0.01167 -0.135322,0.02915 -0.200816,0.05846 -0.06549,0.02931 -0.139133,0.07 -0.199674,0.114876 -0.06054,0.04488 -0.107116,0.09339 -0.15927,0.152141 -0.05215,0.05875 -0.108717,0.126401 -0.111877,0.216784 -0.0032,0.09038 0.04682,0.198278 0.108724,0.28051 0.0619,0.08223 0.130962,0.132107 0.239211,0.203301 0.108249,0.07119 0.25441,0.162789 0.363536,0.228067 0.109126,0.06528 0.181257,0.104262 0.214637,0.132552 0.03338,0.02829 0.02797,0.04641 0.02314,0.05557 -0.0048,0.0092 -0.0093,0.0092 -0.02856,0.0062 -0.01923,-0.0029 -0.05054,-0.0085 -0.130453,-0.03648 -0.07991,-0.028 -0.205224,-0.0775 -0.35802,-0.161125 -0.152797,-0.08362 -0.331233,-0.200514 -0.482697,-0.313549 -0.151465,-0.113035 -0.275432,-0.221849 -0.341615,-0.323267 -0.06618,-0.101418 -0.07448,-0.195151 -0.05164,-0.281301 0.02284,-0.08615 0.07659,-0.164712 0.175862,-0.256306 0.09927,-0.09159 0.243948,-0.196308 0.384511,-0.264424 0.140562,-0.06812 0.27701,-0.09977 0.393359,-0.121083 0.116349,-0.02131 0.212975,-0.03235 0.334639,-0.03926 0.121664,-0.0069 0.269455,-0.0098 0.326244,-0.06977 0.05679,-0.06001 0.02333,-0.177064 -0.02547,-0.24995 -0.0488,-0.07289 -0.113124,-0.101891 -0.168024,-0.137722 -0.0549,-0.03583 -0.100395,-0.07857 -0.223884,-0.104811 -0.123489,-0.02624 -0.323908,-0.03584 -0.476505,-0.06756 -0.152597,-0.03172 -0.255697,-0.08534 -0.339881,-0.150201 -0.08418,-0.06486 -0.148897,-0.140586 -0.193008,-0.237842 -0.04411,-0.09726 -0.06753,-0.215741 -0.07232,-0.341194 -0.0048,-0.125452 0.009,-0.257746 0.07449,-0.385324 0.0655,-0.127578 0.183028,-0.251012 0.296984,-0.299185 0.113956,-0.04817 0.224666,-0.02167 0.325922,-0.0083 0.101255,0.01334 0.193,0.01357 0.299141,-0.0021 0.106141,-0.01566 0.227317,-0.04729 0.297089,-0.141013 0.06977,-0.09373 0.08872,-0.249371 0.101982,-0.407915 0.01326,-0.158544 0.02084,-0.31996 -8.91e-4,-0.460552 -0.02174,-0.140593 -0.07272,-0.260477 -0.149047,-0.356096 -0.07633,-0.09562 -0.178497,-0.16741 -0.261074,-0.199133 -0.08258,-0.03172 -0.145908,-0.02344 -0.212231,0.0097 -0.06632,0.03312 -0.1349,0.09073 -0.183295,0.165301 -0.04839,0.07458 -0.07584,0.165142 -0.09518,0.260409 -0.01934,0.09527 -0.03033,0.194126 -0.0262,0.271449 0.0041,0.07732 0.02337,0.132296 0.0496,0.187532 0.02624,0.05523 0.05921,0.110199 0.08958,0.1516 0.03036,0.0414 0.05788,0.06892 0.06753,0.110104 0.0097,0.04119 0.0014,0.0963 -0.01167,0.152192 -0.01304,0.0559 -0.03069,0.111989 -0.04191,0.143098 -0.01122,0.03111 -0.01611,0.03698 -0.02095,0.04048 -0.0048,0.0035 -0.0099,0.0045 -0.01127,-0.0011 -0.0014,-0.0056 4.28e-4,-0.01618 0.0014,-0.0216 9.34e-4,-0.0054 9.28e-4,-0.0043 -0.003,-0.01709 z"
           id="path5344" />
      </g>
    </g>
  </g>
</svg>
