<?xml version="1.0" encoding="UTF-8" standalone="no"?>
<svg
   xmlns:dc="http://purl.org/dc/elements/1.1/"
   xmlns:cc="http://creativecommons.org/ns#"
   xmlns:rdf="http://www.w3.org/1999/02/22-rdf-syntax-ns#"
   xmlns:svg="http://www.w3.org/2000/svg"
   xmlns="http://www.w3.org/2000/svg"
   version="1.1"
   id="svg2"
   viewBox="0 0 400 400.00001"
   height="400"
   width="400">
  <defs
     id="defs4" />
  <metadata
     id="metadata7">
    <rdf:RDF>
      <cc:Work
         rdf:about="">
        <dc:format>image/svg+xml</dc:format>
        <dc:type
           rdf:resource="http://purl.org/dc/dcmitype/StillImage" />
        <dc:title></dc:title>
      </cc:Work>
    </rdf:RDF>
  </metadata>
  <g
     transform="translate(0,-652.36216)"
     id="layer1">
    <g
       transform="matrix(3.6838784,0,0,3.6838784,74.390631,676.99377)"
       id="g4144">
      <path
      fill="param(fill) #ffff"
         stroke="param(outline) #000"
         stroke-width="param(outline-width) 0"
         id="path4506"
         d="M 17.033756,0.14746187 C 16.931179,0.14742495 16.74212,0.1831403 16.363609,0.25455851 15.606575,0.39739466 14.091332,0.68336555 12.419586,1.6176556 10.74784,2.5519456 8.9230673,4.1320773 7.5069213,5.6480972 6.0907768,7.1641168 5.0886832,8.610224 4.2144934,10.050196 3.3403036,11.490168 2.5976805,12.918383 2.168522,14.534473 c -0.4291586,1.616091 -0.5432764,3.415971 -0.1500414,5.117844 0.3932348,1.701872 1.2927102,3.301119 2.5512343,4.674082 1.2585245,1.372963 2.8733307,2.516215 5.1963118,3.6169 2.3229813,1.100682 5.3535343,2.15835 8.3265043,3.187453 1.902967,0.658719 3.597551,1.243347 5.352715,1.848742 l 0.0721,23.1647 c -0.0603,0.0011 -0.118253,9.42e-4 -0.17867,0.0021 -2.93086,0.05717 -5.988406,0.228596 -8.861989,0.657427 -2.873583,0.428831 -5.5604009,1.114413 -7.5906112,2.172154 -2.0302108,1.057741 -3.4014328,2.486713 -4.3453692,4.102546 -0.9439367,1.615832 -1.4583242,3.415688 -1.80155755,5.102999 -0.34323336,1.687311 -0.51483268,3.258607 -0.57206611,4.917434 -0.0572331,1.658831 1.901e-5,3.401668 0.62084297,5.605611 0.62082399,2.203947 1.80392159,4.864132 3.86290409,6.951745 2.0589821,2.087612 4.991536,3.599453 7.873197,4.712785 2.860703,1.105232 5.67734,1.817004 11.039444,2.502987 l 0,2.103232 6.255614,0.08589 0,-1.502004 c 4.438648,0.43123 9.269416,0.810306 12.871752,1.038096 5.397727,0.341322 8.167691,0.356885 11.925909,0.350451 3.758219,-0.0064 8.518297,-0.0348 10.969458,-0.278348 2.451164,-0.243545 2.594348,-0.701106 2.394832,-1.128756 -0.199515,-0.427649 -0.744329,-0.828968 -1.774518,-1.225778 -1.030191,-0.39681 -2.546145,-0.790043 -4.126404,-1.099597 -1.580258,-0.309557 -3.221607,-0.534914 -5.066416,-0.761342 -1.844811,-0.226427 -3.891436,-0.453549 -6.18351,-0.699309 -2.292073,-0.245762 -4.828558,-0.510272 -7.11663,-0.76028 -2.288069,-0.250011 -4.32457,-0.485149 -6.984082,-0.911914 -2.07857,-0.333545 -4.531054,-0.78527 -6.910391,-1.28622 l 0,-25.371315 c 1.660079,-0.02735 3.262296,-0.05525 4.583952,-0.104447 3.073179,-0.114407 4.732045,-0.343144 6.361121,-0.757631 1.629074,-0.414485 3.230916,-1.015004 4.931219,-2.058165 1.700306,-1.043162 3.498761,-2.52757 4.873961,-4.447693 1.3752,-1.920126 2.316252,-4.258846 2.373094,-6.960227 0.05684,-2.701381 -0.772202,-5.760418 -2.697564,-8.137229 C 48.319508,36.582604 45.278586,34.876972 40.163995,33.005475 37.16388,31.907692 33.462824,30.75214 29.833934,29.602238 l 0.03022,-27.0562342 -6.513283,0 0.07741,24.9572432 C 23.13934,27.402896 22.836178,27.301663 22.55719,27.202105 17.260215,25.311825 13.864267,23.573516 11.58932,21.948533 9.314375,20.323553 8.1222537,18.761563 7.6776408,17.012542 7.2330251,15.26352 7.5163678,13.302411 8.1632866,11.594615 8.8102053,9.8868199 9.8212539,8.4305856 10.919702,7.1278344 c 1.098446,-1.3027514 2.309143,-2.4767856 3.15034,-3.275993 0.841198,-0.7992071 1.325362,-1.2356643 1.838139,-1.6552272 0.51278,-0.419563 1.054326,-0.8220255 1.260772,-1.1663998 0.206445,-0.34437456 0.07844,-0.63193426 0.01485,-0.77512574 -0.0318,-0.0715957 -0.04746,-0.10758987 -0.150043,-0.10762679 z M 29.827571,35.195124 c 1.101619,0.385115 2.256662,0.787819 3.388394,1.181776 2.258171,0.786071 4.746158,1.644071 6.675516,2.615917 1.929358,0.97184 3.301933,2.058417 4.273794,3.173137 0.971862,1.114716 1.543743,2.25793 1.672724,3.373015 0.128981,1.115089 -0.185299,2.19959 -0.571536,3.215552 -0.386235,1.015964 -0.842276,1.95742 -1.614932,2.902215 -0.772658,0.944795 -1.856774,1.88582 -3.072935,2.515713 -1.216158,0.629893 -2.557283,0.943826 -4.030972,1.230022 -1.473686,0.286195 -3.073109,0.543492 -5.275307,0.643639 -0.458145,0.02083 -0.947531,0.03381 -1.453229,0.04348 l 0,-13.527056 0.0085,-7.367406 z m -6.293256,26.37495 0.02916,9.472226 0,14.262949 c -1.221118,-0.324256 -2.348762,-0.63934 -3.35234,-0.923046 -2.090128,-0.590872 -3.661926,-1.047766 -5.177755,-1.69128 -1.515829,-0.643515 -2.972937,-1.472028 -4.073915,-2.615917 -1.1009786,-1.143887 -1.8441112,-2.602098 -2.2585738,-4.26054 -0.4144627,-1.65844 -0.5004617,-3.516693 -0.314397,-5.089215 0.1860621,-1.572519 0.6436451,-2.859196 1.1870751,-3.874037 0.5434297,-1.01484 1.1722237,-1.757664 1.9871227,-2.472237 0.814897,-0.714575 1.815866,-1.400708 3.645528,-1.886386 1.829664,-0.485679 4.488039,-0.771679 8.060885,-0.914564 0.08478,-0.0034 0.181431,-0.0047 0.26721,-0.008 z"
         style="fill:#000000;fill-opacity:1;stroke:none;stroke-width:0.1;stroke-linecap:butt;stroke-linejoin:miter;stroke-miterlimit:4;stroke-dasharray:none;stroke-opacity:1" />
    </g>
  </g>
</svg>
