<?xml version="1.0" encoding="UTF-8" standalone="no"?>
<svg
   xmlns:dc="http://purl.org/dc/elements/1.1/"
   xmlns:cc="http://creativecommons.org/ns#"
   xmlns:rdf="http://www.w3.org/1999/02/22-rdf-syntax-ns#"
   xmlns:svg="http://www.w3.org/2000/svg"
   xmlns="http://www.w3.org/2000/svg"
   width="400"
   height="400"
   viewBox="0 0 400 400.00001"
   id="svg2"
   version="1.1">
  <defs
     id="defs4">
    <marker
       orient="auto"
       refY="0.0"
       refX="0.0"
       id="Arrow2Send"
       style="overflow:visible;">
      <path
         id="path5224"
         style="fill-rule:evenodd;stroke-width:0.62500000;stroke-linejoin:round;"
         d="M 8.7185878,4.0337352 L -2.2072895,0.016013256 L 8.7185884,-4.0017078 C 6.9730900,-1.6296469 6.9831476,1.6157441 8.7185878,4.0337352 z "
         transform="scale(0.3) rotate(180) translate(-2.3,0)" />
    </marker>
    <pattern
       id="EMFhbasepattern"
       patternUnits="userSpaceOnUse"
       width="6"
       height="6"
       x="0"
       y="0" />
    <pattern
       id="EMFhbasepattern-2"
       patternUnits="userSpaceOnUse"
       width="6"
       height="6"
       x="0"
       y="0" />
    <pattern
       id="EMFhbasepattern-8"
       patternUnits="userSpaceOnUse"
       width="6"
       height="6"
       x="0"
       y="0" />
  </defs>
  <metadata
     id="metadata7">
    <rdf:RDF>
      <cc:Work
         rdf:about="">
        <dc:format>image/svg+xml</dc:format>
        <dc:type
           rdf:resource="http://purl.org/dc/dcmitype/StillImage" />
        <dc:title></dc:title>
      </cc:Work>
    </rdf:RDF>
  </metadata>
  <g
     id="layer1"
     transform="matrix(0.96731669,0,0,1,20.465365,-534.57743)">
    <g
       transform="matrix(26.026252,0,0,26.026252,-1371.1817,-2942.1996)"
       id="layer1-4">
      <path
      fill="param(fill) #ffff"
         stroke="param(outline) #000"
         stroke-width="param(outline-width) 0"
         id="path836"
         d="m 64.032233,138.89459 c -0.06759,-0.001 -0.13047,0.008 -0.171702,0.0188 l -0.0039,0.002 -0.08397,0.0234 -0.01568,0.006 c -0.07143,0.0285 -0.145625,0.0656 -0.212826,0.13283 -0.0672,0.0672 -0.11012,0.15917 -0.128926,0.23436 -0.03538,0.14153 -0.03039,0.28012 -0.0078,0.42738 l 0,0.48651 c -0.01888,0.16321 -0.05403,0.30246 -0.103561,0.418 l -0.0098,0.0215 -0.0059,0.0215 c -0.03548,0.14192 -0.07575,0.23548 -0.171851,0.3476 l -0.0078,0.0101 -0.0078,0.0116 c -0.09225,0.12916 -0.238619,0.29351 -0.343778,0.45124 -0.105154,0.15774 -0.154291,0.33898 -0.154291,0.498 l 0,0.0254 0.0039,0.0234 c 0.01904,0.11424 0.04941,0.22936 0.0812,0.3422 -0.06245,0.0429 -0.136454,0.088 -0.229486,0.13809 -0.241802,0.13019 -0.669581,0.29636 -1.150356,0.39653 -0.0038,8e-4 -0.0079,0.001 -0.01171,0.002 0.376426,-0.34693 0.613188,-0.84318 0.613188,-1.39297 0,-1.04452 -0.853959,-1.89652 -1.898474,-1.89652 -1.062062,0 -1.917984,0.85201 -1.917984,1.89652 0,0.5868 0.270151,1.11277 0.695211,1.46111 -0.125671,-0.0191 -0.254304,-0.042 -0.390456,-0.0704 -0.48422,-0.10088 -1.057255,-0.28493 -1.605425,-0.54887 l -0.0039,-0.002 -0.0039,-0.002 c -0.469989,-0.20889 -0.947102,-0.48258 -1.402655,-0.7668 -0.04259,-0.0765 -0.08427,-0.15106 -0.133804,-0.24022 -0.141217,-0.25418 -0.310648,-0.59311 -0.423626,-0.87554 -0.141215,-0.28243 -0.254204,-0.50829 -0.310684,-0.6213 -0.05648,-0.11302 -0.08472,-0.11309 -0.08472,-0.11309 -0.02825,0 -0.02825,0.0283 -0.08473,0.0847 -0.02824,0.0565 -0.08475,0.16944 -0.141234,0.3389 -0.05649,0.14121 -0.141228,0.33896 -0.225958,0.50842 -0.05649,0.16946 -0.169415,0.31061 -0.282393,0.42363 -0.112973,0.11296 -0.254194,0.19768 -0.395409,0.3389 -0.141217,0.11298 -0.310712,0.28239 -0.367192,0.39541 -0.08474,0.0848 -0.11295,0.11305 0.05651,0.16945 0.169459,0.0282 0.508406,0.11293 0.847326,0.14123 0.310674,0.0283 0.593036,-1e-5 0.875468,0.0283 0.237683,0 0.470102,0.0393 0.623619,0.0688 0.38898,0.23379 0.794825,0.45685 1.207165,0.64065 5.98e-4,2.9e-4 0.0014,-2.9e-4 0.002,0 0.0021,9.5e-4 0.0037,0.003 0.0059,0.004 0.592177,0.28421 1.201182,0.48153 1.73045,0.5918 0.524269,0.10922 0.974032,0.15429 1.498036,0.15429 0.523993,0 1.111231,-0.0428 1.646474,-0.15429 0.53522,-0.11151 0.998148,-0.287 1.306674,-0.45312 0.138226,-0.0744 0.250513,-0.1471 0.34588,-0.21755 0.100708,0.0114 0.204497,0.0203 0.319989,0.0203 0.217323,0 0.42026,-0.054 0.609361,-0.12495 0.204429,-0.0688 0.38773,-0.14914 0.574239,-0.20509 l 0.0059,-0.002 0.0039,0 c 0.166204,-0.0554 0.363838,-0.0963 0.515555,-0.11526 l 0.01764,-0.002 0.01561,-0.004 c 0.15295,-0.0382 0.289772,-0.058 0.4219,-0.0801 l 0.03122,-0.006 0.02934,-0.0117 c 0.01547,-0.006 0.120418,-0.0363 0.222657,-0.0664 0.102237,-0.0301 0.199417,-0.0521 0.314436,-0.12113 0.08135,-0.0488 0.197746,-0.12347 0.308132,-0.19541 0.05239,-0.0183 0.107975,-0.0493 0.160745,-0.10206 0.144402,-0.1443 0.157217,-0.32303 0.122998,-0.4941 -0.04,-0.20004 -0.150576,-0.35882 -0.310534,-0.56448 -0.18264,-0.23481 -0.433967,-0.44011 -0.626921,-0.65236 l -0.0059,-0.004 -0.0039,-0.006 c -0.211668,-0.21167 -0.426881,-0.42542 -0.646432,-0.62302 l -0.0039,-0.006 -0.0059,-0.004 c -0.246362,-0.20157 -0.503528,-0.38246 -0.765603,-0.47075 -0.108859,-0.0431 -0.193216,-0.0719 -0.281267,-0.084 l -7.5e-5,-6.7e-4 c -0.02294,-0.003 -0.04599,-0.005 -0.06851,-0.005 z m -0.01876,0.57432 c 0.002,-3.8e-4 0.0045,-3.5e-4 0.0091,1.5e-4 l 7.5e-5,9.7e-4 c 0.01269,0.002 0.06228,0.0144 0.158194,0.0527 l 0.0078,0.002 0.0078,0.004 c 0.117599,0.0392 0.367836,0.19459 0.585947,0.37304 0.200682,0.18126 0.404971,0.38546 0.613263,0.59375 0.22743,0.24824 0.47798,0.46358 0.589849,0.60741 0.100238,0.12887 0.121293,0.18535 0.146486,0.23827 -0.04231,-0.007 -0.06257,-0.0101 -0.140633,-0.0215 -0.15069,-0.0422 -0.306601,-0.081 -0.453118,-0.14454 -0.176412,-0.0986 -0.326554,-0.19368 -0.449216,-0.29882 l -0.0098,-0.008 -0.0098,-0.008 c -0.13761,-0.0983 -0.2474,-0.18879 -0.408241,-0.34963 l -0.0078,-0.006 -0.0078,-0.008 c -0.163605,-0.14316 -0.386803,-0.34998 -0.515631,-0.49605 -0.108825,-0.14146 -0.130763,-0.19891 -0.146411,-0.29702 l 0,-0.0478 -0.006,0 c -0.0108,-0.0767 -0.0077,-0.14425 -0.0038,-0.1768 l 0.02732,-0.006 0.0059,-0.002 c 0.0029,-10e-4 0.0045,-0.002 0.0065,-0.002 z m -4.00257,0.75112 c 0.733474,0 1.322283,0.58686 1.322283,1.32033 0,0.73348 -0.588809,1.32025 -1.322283,1.32025 -0.758255,0 -1.339842,-0.58677 -1.339842,-1.32025 0,-0.73347 0.581587,-1.32033 1.339842,-1.32033 z m 3.906888,0.39278 c 0.114881,0.11131 0.234369,0.21846 0.335373,0.30701 0.170785,0.17079 0.309513,0.28499 0.460923,0.3945 0.0018,0.002 0.0041,0.002 0.0059,0.004 0.169008,0.14393 0.352463,0.26008 0.548799,0.36915 l 0.01178,0.006 0.01171,0.006 c 0.04377,0.0195 0.08669,0.0363 0.128927,0.0519 -0.106921,0.0175 -0.236924,0.0387 -0.386854,0.0742 -0.186946,0.0234 -0.412203,0.069 -0.626996,0.14063 -0.228521,0.0695 -0.422357,0.1544 -0.591801,0.21087 l -0.0059,0.002 -0.0039,0.002 c -0.149562,0.0561 -0.2869,0.0879 -0.408241,0.0879 -0.05052,0 -0.09964,-0.003 -0.149113,-0.007 -0.02726,-0.10001 -0.05125,-0.19418 -0.06574,-0.27031 -5.31e-4,-0.0738 -0.0065,-0.0751 0.05276,-0.16405 0.06126,-0.0919 0.201943,-0.25803 0.318338,-0.41799 0.154718,-0.1805 0.23744,-0.37734 0.28712,-0.57034 0.02967,-0.0728 0.05524,-0.14837 0.07685,-0.22656 z"
         style="fill:#000000;fill-opacity:1;fill-rule:nonzero;stroke:none;stroke-width:0.26458332" />
    </g>
  </g>
</svg>
